<svg xmlns="http://www.w3.org/2000/svg" xml:space="preserve" width="512" height="512" viewBox="0 0 512 512"><circle cx="256" cy="256" r="240" style="fill:#4a4a4a;stroke:none;fill-opacity:1"/><path d="m232.853 433.631-1.75-1.71-122.681-120.904c-21.498-21.179-33.682-50.903-33.682-82.04v-2.452c0-52.316 35.012-97.2 83.468-107.009 27.59-5.647 55.809 1.115 78.286 17.91A107.5 107.5 0 0 1 254 153.995a94 94 0 0 1 9.453-9.883 101 101 0 0 1 8.053-6.688c22.477-16.794 50.697-23.556 78.286-17.983 48.456 9.809 83.468 54.767 83.468 107.083v2.452c0 31.137-12.184 60.861-33.682 82.04l-122.68 120.905-1.751 1.709c-5.742 5.648-13.304 8.843-21.147 8.843s-15.405-3.121-21.147-8.843m9.313-240.175c-.28-.223-.49-.52-.7-.817l-12.464-14.863-.07-.074c-16.176-19.247-40.614-28.015-64.422-23.185-32.63 6.614-56.158 36.784-56.158 72.008v2.452c0 21.179 8.332 41.466 22.967 55.882L254 405.764 376.68 284.86c14.636-14.416 22.968-34.703 22.968-55.882v-2.452c0-35.15-23.527-65.394-56.088-72.008-23.808-4.83-48.316 4.013-64.422 23.185l-.07.074-.07.075-12.464 14.862c-.21.297-.49.52-.7.817-3.151 3.345-7.422 5.202-11.834 5.202-4.411 0-8.683-1.857-11.834-5.202z" style="fill:#fff;fill-opacity:1;stroke:none;stroke-width:.721356"/></svg>
